<svg viewBox="0 0 179 33" fill="none" xmlns="http://www.w3.org/2000/svg">
    <path d="M60.3279 20.3327C60.3279 15.4376 64.039 11.6595 69.0334 11.6595C72.2207 11.6595 75.0456 13.335 76.458 15.8645L72.1537 18.3617C71.5952 17.2124 70.4136 16.5223 68.9664 16.5223C66.8316 16.5223 65.2528 18.0663 65.2528 20.3327C65.2528 22.5991 66.8291 24.1431 68.9664 24.1431C70.4136 24.1431 71.6274 23.453 72.1537 22.3037L76.458 24.7686C75.0456 27.3304 72.253 29.0059 69.0334 29.0059C64.039 29.0059 60.3279 25.2278 60.3279 20.3327ZM87.7725 11.791C85.7022 11.791 83.5004 12.8435 82.8451 15.0429V12.1187H77.9176V28.5442H82.8451V21.1196C82.8451 17.8678 85.737 17.0461 87.7725 17.3738V11.7885V11.791ZM105.74 20.3352C105.74 15.373 102.19 11.6595 97.394 11.6595C92.2034 11.6595 88.6537 15.4376 88.6537 20.3352C88.6537 25.2328 92.1364 29.0084 97.7564 29.0084C100.877 29.0084 103.307 27.8566 104.918 25.6225L100.973 23.3562C100.318 24.0785 99.1688 24.6048 97.8209 24.6048C96.0138 24.6048 94.5021 24.014 93.879 22.3062H105.541C105.673 21.6806 105.74 21.0228 105.74 20.3352ZM93.7797 18.6249C94.2389 16.9493 95.4875 16.0308 97.3617 16.0308C98.8387 16.0308 100.318 16.7209 100.844 18.6249H93.7797ZM178.837 20.3352C178.837 15.373 175.289 11.6595 170.491 11.6595C165.3 11.6595 161.753 15.4376 161.753 20.3352C161.753 25.2328 165.236 29.0084 170.853 29.0084C173.974 29.0084 176.406 27.8566 178.015 25.6225L174.073 23.3562C173.415 24.0785 172.266 24.6048 170.918 24.6048C169.111 24.6048 167.599 24.014 166.976 22.3062H178.64C178.769 21.6806 178.837 21.0228 178.837 20.3352ZM166.877 18.6249C167.338 16.9493 168.585 16.0308 170.459 16.0308C171.936 16.0308 173.415 16.7209 173.941 18.6249H166.877ZM119.847 12.1212V13.6652C118.762 12.4166 117.153 11.662 114.951 11.662C110.647 11.662 107.1 15.4376 107.1 20.3327C107.1 25.2278 110.647 29.0084 114.951 29.0084C117.153 29.0084 118.762 28.2513 119.847 27.0027V28.5467H124.774V12.1187H119.847V12.1212ZM115.937 24.3417C113.671 24.3417 112.027 22.7977 112.027 20.3327C112.027 17.8678 113.671 16.3262 115.937 16.3262C118.203 16.3262 119.847 17.8702 119.847 20.3327C119.847 22.7952 118.203 24.3417 115.937 24.3417ZM137.096 16.8525V12.1212H133.713V7.51895L128.785 8.99594V12.1187H126.157V16.85H128.785V22.6661C128.785 27.2658 130.657 29.2045 137.099 28.5467V24.0785C134.929 24.2101 133.715 24.0785 133.715 22.6661V16.85H137.099L137.096 16.8525ZM138.73 7.72002C138.73 9.33105 140.078 10.6765 141.686 10.6765C143.295 10.6765 144.643 9.32857 144.643 7.72002C144.643 6.11148 143.295 4.76357 141.686 4.76357C140.078 4.76357 138.73 6.11148 138.73 7.72002ZM139.221 28.5492H144.149V12.1187H139.221V28.5442V28.5492ZM157.23 12.1237L153.812 22.537L150.394 12.1237H144.94L151.017 28.5517H156.602L162.682 12.1237H157.228H157.23ZM53.9756 0.0595703C51.7515 0.0595703 49.6837 1.1642 48.4475 3.0185L46.8241 5.45118L45.6822 3.60929H45.6872L45.3918 3.1451C44.1655 1.21137 42.0704 0.0595703 39.7842 0.0595703C36.8526 0.0595703 34.3603 1.96848 33.4841 4.60719H33.4816L31.4486 9.46509L29.2815 4.2969C28.296 1.76244 25.8112 0.0595703 23.0906 0.0595703C20.5263 0.0595703 18.2972 1.51918 17.1926 3.65397L17.1876 3.64405L17.1479 3.74334C17.0138 4.00895 16.8997 4.28449 16.8028 4.56747L14.879 9.18459L12.8311 4.2969C11.8456 1.76244 9.35836 0.0595703 6.64021 0.0595703C2.97879 0.0595703 0 3.03588 0 6.6973C0 7.58349 0.183692 8.48706 0.531217 9.30871L8.70799 28.7925C9.72078 31.3095 12.1981 33 14.8716 33C17.7163 33 20.2384 31.1954 21.1568 28.5095L23.0955 23.875L25.1583 28.7925C26.1711 31.3095 28.6485 33 31.3244 33C34.1667 33 36.6887 31.1954 37.6072 28.5095L39.8562 23.1328L40.7324 21.0501L41.1346 21.7079V26.3598C41.1346 30.0212 44.1134 33 47.7748 33C51.4362 33 54.4125 30.0212 54.4125 26.3598V18.0167L58.975 11.0811C59.8736 9.74312 60.6159 8.49202 60.6159 6.6973C60.6159 3.03588 57.6371 0.0595703 53.9756 0.0595703V0.0595703ZM20.1167 28.0949L20.1019 28.1322C19.3447 30.3737 17.2422 31.8805 14.8716 31.8805C12.6499 31.8805 10.5896 30.4705 9.7456 28.3655L1.56386 8.8743C1.27343 8.1867 1.11953 7.43455 1.11953 6.6973C1.11953 3.65397 3.59689 1.17662 6.64021 1.17662C8.90409 1.17662 10.9719 2.5965 11.7886 4.70896L14.2734 10.6368L16.639 16.2741L17.6493 18.6844L17.6617 18.7142V18.7192C17.6617 18.7192 17.7014 18.7912 17.7536 18.8905C17.7561 18.893 17.7585 18.8954 17.7585 18.8979C17.766 18.9103 17.771 18.9203 17.7784 18.9327L17.7858 18.9476L17.8007 18.9774C17.8007 18.9774 17.8107 18.9923 17.8156 19.0022C17.8206 19.0096 17.8231 19.0171 17.828 19.027C17.8355 19.0369 17.8405 19.0469 17.8454 19.0568C17.8504 19.0642 17.8554 19.0717 17.8578 19.0791L17.8802 19.1164C17.8802 19.1164 17.8851 19.1288 17.8876 19.1337C17.9869 19.3075 18.116 19.5284 18.2724 19.7767C18.2724 19.7767 18.2732 19.7783 18.2749 19.7816C18.2922 19.8089 18.3096 19.8338 18.327 19.8611C18.327 19.8635 18.3295 19.8685 18.332 19.871C18.3493 19.8958 18.3642 19.9231 18.3816 19.9479C18.3841 19.9529 18.3866 19.9579 18.3891 19.9604C18.4064 19.9877 18.4238 20.0125 18.4412 20.0373C18.4437 20.0448 18.4461 20.0497 18.4511 20.0547C18.4685 20.0795 18.4834 20.1043 18.5008 20.1292C18.5057 20.1366 18.5107 20.1416 18.5132 20.149L18.5653 20.2235C18.5653 20.2235 18.5727 20.2384 18.5777 20.2458L18.6298 20.3203L18.6447 20.3426L18.6969 20.4171C18.6969 20.4171 18.7093 20.4345 18.7142 20.4444C18.7316 20.4668 18.749 20.4916 18.7664 20.5164L18.7887 20.5462C18.8061 20.5685 18.821 20.5934 18.8384 20.6157C18.8508 20.6306 18.8632 20.648 18.8731 20.6653C18.8855 20.6827 18.8979 20.6976 18.9103 20.715C18.9352 20.7497 18.96 20.782 18.9848 20.8168C18.9848 20.8168 18.9856 20.8176 18.9873 20.8192L19.0171 20.8565C19.032 20.8788 19.0493 20.9012 19.0667 20.9235H19.0692C19.0965 20.9607 19.1238 20.9955 19.1511 21.0327C19.1834 21.0724 19.2132 21.1072 19.243 21.1444C19.2653 21.1717 19.2852 21.199 19.3075 21.2263C19.3721 21.3058 19.4366 21.3827 19.5011 21.4572C19.5036 21.4622 19.5061 21.4646 19.5086 21.4671C19.5086 21.4671 19.5111 21.4671 19.5111 21.4696C19.5384 21.5019 19.5682 21.5317 19.5955 21.5639L19.6699 21.6459C19.7047 21.6856 19.7394 21.7253 19.7742 21.7625L19.799 21.7873C19.799 21.7873 19.8089 21.7998 19.8139 21.8047C19.8735 21.8668 19.9331 21.9288 19.9926 21.9884L20.0001 21.9959C20.0001 21.9959 20.0001 21.9983 20.005 22.0008C20.6157 22.6065 21.2214 23.026 21.8196 23.2569C21.8221 23.2569 21.8246 23.2594 21.8296 23.2594C21.8842 23.2792 21.9388 23.2991 21.9909 23.3165C22.0008 23.3189 22.0108 23.3214 22.0182 23.3264C22.0455 23.3338 22.0728 23.3438 22.1001 23.3512L20.1167 28.0949ZM22.2491 22.2218C22.2342 22.2168 22.2168 22.2093 22.2019 22.2044C22.1572 22.1845 22.1101 22.1671 22.0654 22.1448C22.048 22.1374 22.0331 22.1299 22.0157 22.1225C21.9586 22.0952 21.9015 22.0654 21.842 22.0306C21.842 22.0306 21.8403 22.0298 21.837 22.0281C21.7725 21.9934 21.7079 21.9512 21.6409 21.909C21.6359 21.904 21.6285 21.9015 21.6235 21.8966C21.5615 21.8544 21.4969 21.8097 21.4324 21.7625C21.4299 21.7625 21.4274 21.7625 21.4249 21.7576C21.2189 21.6037 21.0054 21.4175 20.7895 21.2015C20.7299 21.1419 20.6703 21.0824 20.6132 21.0203C20.5288 20.9285 20.4419 20.8341 20.3575 20.7348C20.2235 20.5809 20.0894 20.4171 19.9554 20.2433C19.9306 20.2086 19.9058 20.1763 19.8809 20.1441C19.1983 19.233 18.7391 18.3617 18.6745 18.2327L15.4872 10.6343L16.5819 8.00797C16.5819 8.00797 16.5844 8.0179 16.5844 8.02286C16.6018 8.09982 16.6192 8.17677 16.639 8.25372C16.6465 8.29344 16.6564 8.33067 16.6663 8.37039C16.6936 8.47713 16.7234 8.58387 16.7557 8.68813C16.7582 8.69061 16.7582 8.69309 16.7582 8.69557C16.7731 8.74274 16.7904 8.7899 16.8053 8.83707C16.8252 8.89168 16.8426 8.94877 16.8624 9.00338C16.8997 9.10764 16.9394 9.20941 16.9816 9.30871L22.4253 22.2789C22.3682 22.264 22.3086 22.2441 22.2491 22.2218ZM36.5671 28.0949L36.5522 28.1322C35.7951 30.3737 33.6926 31.8805 31.3244 31.8805C29.1003 31.8805 27.0399 30.4705 26.196 28.3655L24.0165 23.175L23.7012 22.4253L23.736 22.3459H23.669L21.6781 17.6071L18.0142 8.8743C18.0043 8.85196 17.9968 8.82714 17.9869 8.8048C17.9621 8.74274 17.9373 8.68068 17.9149 8.61862C17.8951 8.56898 17.8802 8.51685 17.8628 8.4672C17.8504 8.42997 17.838 8.39273 17.8256 8.35798C17.8206 8.33812 17.8156 8.31826 17.8082 8.30089C17.7908 8.23883 17.7734 8.17429 17.7561 8.11223C17.7486 8.08492 17.7412 8.05762 17.7362 8.03031C17.7213 7.96825 17.7064 7.9062 17.6915 7.84662C17.6915 7.82428 17.6841 7.80442 17.6791 7.78208C17.6444 7.61328 17.6195 7.44448 17.6022 7.2732C17.5997 7.25334 17.5972 7.23597 17.5947 7.21611C17.5897 7.14909 17.5848 7.08206 17.5798 7.01504C17.5798 6.9927 17.5773 6.97036 17.5773 6.9505C17.5724 6.8661 17.5699 6.7817 17.5699 6.6973C17.5699 6.6129 17.5724 6.52851 17.5773 6.44411V6.36467C17.5823 6.32495 17.5873 6.28524 17.5897 6.24552C17.5922 6.22318 17.5922 6.20084 17.5947 6.1785L17.6022 6.10651C17.6195 5.93523 17.6468 5.76395 17.6816 5.59763C17.6816 5.58771 17.6841 5.57778 17.6866 5.56785C17.7039 5.48841 17.7213 5.40898 17.7412 5.33203C17.7436 5.32458 17.7436 5.31961 17.7461 5.31217C18.3617 2.93658 20.5238 1.17662 23.0906 1.17662C25.3545 1.17662 27.4222 2.5965 28.2389 4.70896L30.8404 10.9123L34.0997 18.6844L34.1146 18.7192C34.1394 18.7688 34.6383 19.7518 35.4302 20.8068C35.4352 20.8143 35.4401 20.8217 35.4451 20.8267C35.465 20.854 35.4873 20.8813 35.5072 20.9111C35.5171 20.921 35.5245 20.9334 35.5345 20.9434C35.5518 20.9682 35.5717 20.993 35.5916 21.0178C35.594 21.0228 35.599 21.0278 35.6015 21.0327C35.6064 21.0352 35.6089 21.0402 35.6114 21.0427C35.666 21.1122 35.7206 21.1817 35.7777 21.2512L35.8075 21.2884C35.8572 21.348 35.9093 21.4076 35.9589 21.4671H35.9614C35.9763 21.487 35.9912 21.5019 36.0061 21.5217C36.0235 21.5391 36.0384 21.5565 36.0533 21.5739C36.0657 21.5863 36.0756 21.5987 36.0855 21.6111C36.1302 21.6608 36.1749 21.7079 36.2196 21.7551C36.2295 21.7675 36.2419 21.7774 36.2519 21.7898C36.304 21.8444 36.3561 21.8991 36.4082 21.9537L36.4157 21.9611C36.9742 22.5246 37.5302 22.9292 38.0813 23.1775H38.0838C38.2402 23.2494 38.3966 23.3065 38.5505 23.3512L36.5671 28.0949ZM38.9899 22.3062C38.9501 22.2987 38.9129 22.2888 38.8757 22.2789C38.8484 22.2714 38.8211 22.2615 38.7938 22.254C38.7764 22.2491 38.7615 22.2416 38.7441 22.2366C38.6771 22.2143 38.6101 22.187 38.5406 22.1572C38.5108 22.1423 38.4785 22.1274 38.4487 22.1125C38.3271 22.053 38.2005 21.9785 38.0739 21.8941C37.8902 21.7749 37.7015 21.626 37.5129 21.4597C37.3093 21.276 37.0983 21.065 36.8898 20.8317C36.8625 20.7994 36.8352 20.7671 36.8054 20.7348C35.8646 19.6451 35.2043 18.3866 35.1249 18.2327L32.0542 10.9123L33.2631 8.02535C33.2681 8.04272 33.2731 8.06258 33.2755 8.07996C33.2904 8.15443 33.3053 8.2289 33.3227 8.30337C33.3302 8.33315 33.3351 8.36294 33.3426 8.39273C33.3649 8.47713 33.3848 8.55905 33.4096 8.64345C33.4121 8.65586 33.417 8.67075 33.4195 8.68316C33.4468 8.77749 33.4791 8.87182 33.5089 8.96615C33.5188 8.99097 33.5287 9.01579 33.5362 9.04062C33.561 9.11012 33.5883 9.17963 33.6156 9.24913C33.6256 9.27644 33.6355 9.30374 33.6479 9.33105C33.6826 9.41545 33.7174 9.49736 33.7546 9.57928C33.7571 9.58673 33.7621 9.59418 33.7646 9.60162C33.8043 9.6885 33.849 9.77539 33.8936 9.86227C33.9061 9.88709 33.9209 9.90943 33.9334 9.93425C33.9681 9.99879 34.0029 10.0633 34.0401 10.1254C34.055 10.1502 34.0699 10.175 34.0848 10.1974C34.1344 10.2818 34.1866 10.3637 34.2412 10.4431L40.0126 19.8735L38.9899 22.3062ZM42.2541 26.3598V23.458C43.0187 24.5676 43.7534 25.4637 44.4261 26.2828C45.9801 28.1793 47.045 29.4801 47.1939 31.8507C44.4237 31.5603 42.2541 29.2095 42.2541 26.3598ZM53.293 26.3598C53.293 29.2219 51.1061 31.5801 48.3159 31.8532C48.1596 29.073 46.8812 27.5141 45.2925 25.5729C44.8308 25.0094 44.3368 24.4087 43.8254 23.726C43.3165 23.0459 42.7878 22.2813 42.2541 21.3927L35.1894 9.84737L35.1745 9.82503C34.5788 8.94877 34.2635 7.86648 34.2635 6.6973C34.2635 6.6129 34.266 6.52602 34.271 6.44162C34.271 6.4168 34.2734 6.39446 34.2734 6.36964C34.2784 6.3051 34.2834 6.24056 34.2883 6.17602C34.2908 6.15367 34.2933 6.13382 34.2958 6.11147C34.3132 5.94019 34.338 5.76891 34.3727 5.60012C34.3752 5.58771 34.3777 5.57778 34.3802 5.56536C34.3976 5.48593 34.4149 5.40898 34.4348 5.33203C34.4373 5.32458 34.4373 5.31961 34.4398 5.31217C35.0554 2.93658 37.2175 1.17662 39.7842 1.17662C41.6732 1.17662 43.4109 2.12735 44.4311 3.721L46.1389 6.47389L46.1315 6.48631L53.293 18.1483V26.3598ZM58.0442 10.4605L53.8664 16.8078L47.472 6.49624L49.3784 3.63908C50.4061 2.09756 52.1263 1.17662 53.9756 1.17662C57.019 1.17662 59.4963 3.65397 59.4963 6.6973C59.4963 8.05017 59.0073 9.02324 58.0442 10.4605Z" fill="white"/>
</svg>
